# xmcd CD database file
#
# Track frame offsets:
#	150
#	10240
#	22109
#	31237
#	52855
#	64889
#	76848
#	88249
#	101642
#	111152
#	132059
#	143070
#	157210
#	173499
#	190484
#	203991
#	223856
#	240839
#	245397
#	267542
#	287029
#	305000
#	320171
#	348317
#
# Disc length: 4797 seconds
#
# Revision: 0
# Processed by: cddbd v1.5.2PL0 Copyright (c) Steve Scherf et al.
# Submitted via: CDex 1.85
#
DISCID=6112bb18
DTITLE=Kate Bush - This Womans Work - Anthology 1978 - 1990
DYEAR=1990
DGENRE=New Age
TTITLE0=The Empty Bullring
TTITLE1=Ran Tan Waltz
TTITLE2=Passing Through Air
TTITLE3=December Will Be Magic Again
TTITLE4=Warm And Smoothing
TTITLE5=Lord Of The Reedy River
TTITLE6=Ne T'en Fui Pas
TTITLE7=Un Baiser D'enfant
TTITLE8=Under The Ivy
TTITLE9=Burning Bridge
TTITLE10=My Lagan Love
TTITLE11=The Handsome Cabin Boy
TTITLE12=Not This Time
TTITLE13=Walk Straight Down The Middle
TTITLE14=Be Kind To My Mistakes
TTITLE15=I'm Still Waiting
TTITLE16=Ken
TTITLE17=One Last Look Around The House Before We Go....
TTITLE18=Wuthering Heights ( New Vocal )
TTITLE19=Experiment Iv
TTITLE20=Them Heavy People
TTITLE21=Don't Push Your Foot On The Heartbreake
TTITLE22=James And The Cold Gun
TTITLE23=L'amour Looks Something Like You
EXTD=YEAR: 1990
EXTT0=
EXTT1=
EXTT2=
EXTT3=
EXTT4=
EXTT5=
EXTT6=
EXTT7=
EXTT8=
EXTT9=
EXTT10=
EXTT11=
EXTT12=
EXTT13=
EXTT14=
EXTT15=
EXTT16=
EXTT17=
EXTT18=
EXTT19=
EXTT20=
EXTT21=
EXTT22=
EXTT23=
PLAYORDER=
